<svg version="1.1" width="1565.8000000000002" height="2335.0" style="background-color:white" xmlns="http://www.w3.org/2000/svg" xmlns:xlink="http://www.w3.org/1999/xlink"><rect width="100%" height="100%" fill="white"/>
<g id="DrawingFrame"><rect x="0.0" y="0.0" width="230.0" height="363.0"  rx="0" ry="0" fill="white" stroke="black" stroke-width="1.5" stroke-opacity="0" stroke-dasharray="0"/><text x="0.0" y="12.0" font-family="Arial" font-size="12" font-weight="bold" opacity="1.2"></text></g>
<g id="AWS-aws-generic"><rect x="10.0" y="30.0" width="210.0" height="323.0"  rx="0" ry="0" fill="white" stroke="black" stroke-width="1.5" stroke-opacity="0.18" stroke-dasharray="0"/><text x="10.0" y="82.0" font-family="Arial" font-size="12" font-weight="bold" opacity="0.38"></text></g>
<g id="AWS-aws-generic-compute"><rect x="20.0" y="80.0" width="190.0" height="263.0"  rx="15" ry="15" fill="white" stroke="none" stroke-width="1.5" stroke-opacity="0.22" stroke-dasharray="0"/><text x="20.0" y="92.0" font-family="Arial" font-size="12" font-weight="bold" opacity="0.42000000000000004"></text></g>
<g id="AWS-aws-generic-server-compute"><rect x="30.0" y="90.0" width="170.0" height="243.0"  rx="15" ry="15" fill="white" stroke="none" stroke-width="1.5" stroke-opacity="0.26" stroke-dasharray="0"/><text x="30.0" y="102.0" font-family="Arial" font-size="12" font-weight="bold" opacity="0.46"></text></g>
<g id="AWS-aws-generic-server-compute-lb"><rect x="40.0" y="100.0" width="150" height="113.0"  rx="15" ry="15" fill="white" stroke="none" stroke-width="1.5" stroke-opacity="0.4" stroke-dasharray="0"/><text x="40.0" y="112.0" font-family="Arial" font-size="12" font-weight="bold" opacity="0.6000000000000001"></text></g><g id="LoadBalancer" class="aws-power-toggle-alb"><image x="67.5" y="100.0" width="95" height="60" xlink:href="https://studio.infviz.io/svg/awsnew/ALB.svg"/><text x="67.5" y="165.0" font-family="Arial" font-size="10"><tspan x="68.45" dy="10">aws-power-toggle-</tspan><tspan x="109.55" dy="13.0">alb</tspan></text><title>HTTPS - 443 &#10;</title></g>
<g id="AWS-aws-generic-server-compute-node"><rect x="40.0" y="223.0" width="150" height="100.0"  rx="15" ry="15" fill="white" stroke="none" stroke-width="1.5" stroke-opacity="0.4" stroke-dasharray="0"/><text x="40.0" y="235.0" font-family="Arial" font-size="12" font-weight="bold" opacity="0.6000000000000001"></text></g><g id="ECSService" class="ECSService"><image x="67.5" y="223.0" width="95" height="60" xlink:href="https://studio.infviz.io/svg/awsnew/ECS.svg"/><text x="67.5" y="288.0" font-family="Arial" font-size="10"><tspan x="85.8" dy="10">ECSService</tspan></text><title>ECS Service&#10;Cluster: ECSCluster &#10;</title></g><g id="n-AWS-aws-generic"><image x="10.0" y="30.0" width="35" height="35" xlink:href="https://studio.infviz.io/svg/awsnew/AWS-logo.svg"/><text x="50.0" y="35.0" font-family="Arial" font-size="12"  opacity="1" fill="black"><tspan x="50.0" dy="12">AWS</tspan></text></g><rect x="0" y="393.0" width="230.0" height="1942" fill="white"/><text x="10" y="383.0" font-size="10" font-family = "monospace">rendered using InfViz v3.0</text><line x1="0" y1="393.0" x2="1565.8000000000002" y2="393.0" stroke="black" stroke-dasharray="4"/><text x="10" y="418.0" font-family="Arial" font-size="14">nodes</text><text x="15" y="420.0" font-family="Arial" font-size="12"><tspan x="15" dy="24">label</tspan><tspan x="15" dy="22">aws-power-toggle-alb</tspan><tspan x="15" dy="40">ECSService</tspan></text><line x1="139.0" y1="425.0" x2="139.0" y2="511.0" stroke="black"/><text x="144.0" y="420.0" font-family="Arial" font-size="12"><tspan x="144.0" dy="24">type</tspan><tspan x="144.0" dy="22">ElasticLoadBalancingV2-LoadBalancer</tspan><tspan x="144.0" dy="40">ECS-Service</tspan></text><line x1="359.3" y1="425.0" x2="359.3" y2="511.0" stroke="black"/><text x="364.3" y="420.0" font-family="Arial" font-size="12"><tspan x="364.3" dy="24">securityGroups</tspan><tspan x="364.3" dy="22">LoadBalancerSecurityGroup, </tspan><tspan x="364.3" dy="40">.</tspan></text><line x1="531.9000000000001" y1="425.0" x2="531.9000000000001" y2="511.0" stroke="black"/><text x="536.9000000000001" y="420.0" font-family="Arial" font-size="12"><tspan x="536.9000000000001" dy="24">info</tspan><tspan x="536.9000000000001" dy="22">HTTPS - 443 </tspan><tspan x="536.9000000000001" dy="24.5">ECS Service</tspan><tspan x="536.9000000000001" dy="15.5">Cluster: ECSCluster </tspan></text><line x1="656.2" y1="425.0" x2="656.2" y2="511.0" stroke="black"/><line x1="10" y1="425.0" x2="656.2" y2="425.0" stroke="black"/><line x1="10" y1="449.0" x2="656.2" y2="449.0" stroke="black"/><line x1="10" y1="471.0" x2="656.2" y2="471.0" stroke="black"/><line x1="10" y1="511.0" x2="656.2" y2="511.0" stroke="black"/><line x1="10" y1="425.0" x2="10" y2="511.0" stroke="black"/><text x="10" y="544.0" font-family="Arial" font-size="14">Parameters</text><text x="15" y="546.0" font-family="Arial" font-size="12"><tspan x="15" dy="24">key</tspan><tspan x="15" dy="22">ClusterName</tspan><tspan x="15" dy="22">ContainerName</tspan><tspan x="15" dy="22">CertificateArn</tspan><tspan x="15" dy="22">DockerImage</tspan><tspan x="15" dy="22">VPC</tspan><tspan x="15" dy="22">SubnetIds</tspan><tspan x="15" dy="22">LBSubnetIds</tspan><tspan x="15" dy="22">AWS::Region</tspan></text><line x1="107.4" y1="551.0" x2="107.4" y2="751.0" stroke="black"/><text x="112.4" y="546.0" font-family="Arial" font-size="12"><tspan x="112.4" dy="24">Description</tspan><tspan x="112.4" dy="22">The name of the application</tspan><tspan x="112.4" dy="22">The name of the application</tspan><tspan x="112.4" dy="22">CertificateArn for ALB</tspan><tspan x="112.4" dy="22">The name of the application</tspan><tspan x="112.4" dy="22">VPC ID</tspan><tspan x="112.4" dy="22">List of SubnetsID</tspan><tspan x="112.4" dy="22">List of SubnetsID</tspan><tspan x="112.4" dy="22">InfViz generated parameter to control region references</tspan></text><line x1="422.1" y1="551.0" x2="422.1" y2="751.0" stroke="black"/><text x="427.1" y="546.0" font-family="Arial" font-size="12"><tspan x="427.1" dy="24">Default</tspan><tspan x="427.1" dy="22">aws-power-toggle</tspan><tspan x="427.1" dy="22">aws-power-toggle</tspan><tspan x="427.1" dy="22">.</tspan><tspan x="427.1" dy="22">gbolo/aws-power-toggle:3.3</tspan><tspan x="427.1" dy="22">.</tspan><tspan x="427.1" dy="22">.</tspan><tspan x="427.1" dy="22">.</tspan><tspan x="427.1" dy="22">AWS</tspan></text><line x1="584.9000000000001" y1="551.0" x2="584.9000000000001" y2="751.0" stroke="black"/><line x1="10" y1="551.0" x2="584.9000000000001" y2="551.0" stroke="black"/><line x1="10" y1="575.0" x2="584.9000000000001" y2="575.0" stroke="black"/><line x1="10" y1="597.0" x2="584.9000000000001" y2="597.0" stroke="black"/><line x1="10" y1="619.0" x2="584.9000000000001" y2="619.0" stroke="black"/><line x1="10" y1="641.0" x2="584.9000000000001" y2="641.0" stroke="black"/><line x1="10" y1="663.0" x2="584.9000000000001" y2="663.0" stroke="black"/><line x1="10" y1="685.0" x2="584.9000000000001" y2="685.0" stroke="black"/><line x1="10" y1="707.0" x2="584.9000000000001" y2="707.0" stroke="black"/><line x1="10" y1="729.0" x2="584.9000000000001" y2="729.0" stroke="black"/><line x1="10" y1="751.0" x2="584.9000000000001" y2="751.0" stroke="black"/><line x1="10" y1="551.0" x2="10" y2="751.0" stroke="black"/><text x="10" y="784.0" font-family="Arial" font-size="14">Access Map (Network)</text><text x="15" y="786.0" font-family="Arial" font-size="12"><tspan x="15" dy="24">from -> to</tspan><tspan x="15" dy="22">10.0.0.0/8</tspan></text><line x1="79.2" y1="791.0" x2="79.2" y2="837.0" stroke="black"/><text x="84.2" y="786.0" font-family="Arial" font-size="12"><tspan x="84.2" dy="24">aws-power-toggle-alb</tspan><tspan x="84.2" dy="22">.443, </tspan></text><line x1="208.2" y1="791.0" x2="208.2" y2="837.0" stroke="black"/><line x1="10" y1="791.0" x2="208.2" y2="791.0" stroke="black"/><line x1="10" y1="815.0" x2="208.2" y2="815.0" stroke="black"/><line x1="10" y1="837.0" x2="208.2" y2="837.0" stroke="black"/><line x1="10" y1="791.0" x2="10" y2="837.0" stroke="black"/><text x="10" y="870.0" font-family="Arial" font-size="14">Access Map (AWS Permissions)</text><line x1="10" y1="877.0" x2="10" y2="877.0" stroke="black"/><line x1="10" y1="887.0" x2="10" y2="887.0" stroke="black"/><line x1="10" y1="877.0" x2="10" y2="887.0" stroke="black"/><text x="10" y="920.0" font-family="Arial" font-size="14">ECS Tasks</text><text x="15" y="922.0" font-family="Arial" font-size="12"><tspan x="15" dy="24">id</tspan><tspan x="15" dy="22">ECSTD</tspan></text><line x1="63.7" y1="927.0" x2="63.7" y2="973.0" stroke="black"/><text x="68.7" y="922.0" font-family="Arial" font-size="12"><tspan x="68.7" dy="24">Cpu</tspan><tspan x="68.7" dy="22">256</tspan></text><line x1="100.1" y1="927.0" x2="100.1" y2="973.0" stroke="black"/><text x="105.1" y="922.0" font-family="Arial" font-size="12"><tspan x="105.1" dy="24">Memory</tspan><tspan x="105.1" dy="22">512</tspan></text><line x1="156.5" y1="927.0" x2="156.5" y2="973.0" stroke="black"/><text x="161.5" y="922.0" font-family="Arial" font-size="12"><tspan x="161.5" dy="24">Family</tspan><tspan x="161.5" dy="22">aws-power-toggle</tspan></text><line x1="266.1" y1="927.0" x2="266.1" y2="973.0" stroke="black"/><text x="271.1" y="922.0" font-family="Arial" font-size="12"><tspan x="271.1" dy="24">NetworkMode</tspan><tspan x="271.1" dy="22">awsvpc</tspan></text><line x1="354.1" y1="927.0" x2="354.1" y2="973.0" stroke="black"/><text x="359.1" y="922.0" font-family="Arial" font-size="12"><tspan x="359.1" dy="24">Name</tspan><tspan x="359.1" dy="22">1) aws-power-toggle</tspan></text><line x1="477.40000000000003" y1="927.0" x2="477.40000000000003" y2="973.0" stroke="black"/><text x="482.40000000000003" y="922.0" font-family="Arial" font-size="12"><tspan x="482.40000000000003" dy="24">Image</tspan><tspan x="482.40000000000003" dy="22">1) gbolo/aws-power-toggle:3.3</tspan></text><line x1="653.9000000000001" y1="927.0" x2="653.9000000000001" y2="973.0" stroke="black"/><line x1="10" y1="927.0" x2="653.9000000000001" y2="927.0" stroke="black"/><line x1="10" y1="951.0" x2="653.9000000000001" y2="951.0" stroke="black"/><line x1="10" y1="973.0" x2="653.9000000000001" y2="973.0" stroke="black"/><line x1="10" y1="927.0" x2="10" y2="973.0" stroke="black"/><text x="10" y="1006.0" font-family="Arial" font-size="14">ECSService (ECS Service)</text><text x="15" y="1008.0" font-family="Arial" font-size="12"><tspan x="15" dy="24">key</tspan><tspan x="15" dy="22">Cluster</tspan><tspan x="15" dy="22">DesiredCount</tspan><tspan x="15" dy="22">Cpu</tspan><tspan x="15" dy="22">Memory</tspan><tspan x="15" dy="22">Family</tspan><tspan x="15" dy="22">NetworkMode</tspan><tspan x="15" dy="22">TaskRoleArn</tspan><tspan x="15" dy="22">ExecutionRoleArn</tspan><tspan x="15" dy="22">Subnets</tspan><tspan x="15" dy="22">SecurityGroups</tspan><tspan x="15" dy="22">aws-power-toggle - Image</tspan><tspan x="15" dy="22">aws-power-toggle - PortMappings</tspan><tspan x="15" dy="22">aws-power-toggle - Environment</tspan><tspan x="15" dy="40">aws-power-toggle - LogConfiguration</tspan></text><line x1="222.60000000000002" y1="1013.0" x2="222.60000000000002" y2="1363.0" stroke="black"/><text x="227.60000000000002" y="1008.0" font-family="Arial" font-size="12"><tspan x="227.60000000000002" dy="24">value</tspan><tspan x="227.60000000000002" dy="22">ECSCluster</tspan><tspan x="227.60000000000002" dy="22">1</tspan><tspan x="227.60000000000002" dy="22">256</tspan><tspan x="227.60000000000002" dy="22">512</tspan><tspan x="227.60000000000002" dy="22">aws-power-toggle</tspan><tspan x="227.60000000000002" dy="22">awsvpc</tspan><tspan x="227.60000000000002" dy="22">ECSServiceRole</tspan><tspan x="227.60000000000002" dy="22">ExecutionRole</tspan><tspan x="227.60000000000002" dy="22">.</tspan><tspan x="227.60000000000002" dy="22">[{'Ref': 'ContainerSecurityGroup'}]</tspan><tspan x="227.60000000000002" dy="22">gbolo/aws-power-toggle:3.3</tspan><tspan x="227.60000000000002" dy="22">{'ContainerPort': 8080}, </tspan><tspan x="227.60000000000002" dy="22">{'Name': 'POWER_TOGGLE_AWS_REGIONS', 'Value': 'eu-west-1 eu-central-1'}, {'Name': 'POWER_TOGGLE_AWS_ENVIRONMENT_TAG_KEY', 'Value': 'AppEnv'}, </tspan><tspan x="227.60000000000002" dy="24.5">{'LogDriver': 'awslogs', 'Options': {'awslogs-region': {'Ref': 'AWS::Region'}, 'awslogs-group': {'Fn::Sub': 'awslogs-${ClusterName}-${ContainerName}'}, 'awslogs-create-group': 'true', 'awslogs-stream-prefix': {'Fn::Sub': 'awslogs-${ContainerName}-ecs</tspan><tspan x="227.60000000000002" dy="15.5">'}}}</tspan></text><line x1="1535.8000000000002" y1="1013.0" x2="1535.8000000000002" y2="1363.0" stroke="black"/><line x1="10" y1="1013.0" x2="1535.8000000000002" y2="1013.0" stroke="black"/><line x1="10" y1="1037.0" x2="1535.8000000000002" y2="1037.0" stroke="black"/><line x1="10" y1="1059.0" x2="1535.8000000000002" y2="1059.0" stroke="black"/><line x1="10" y1="1081.0" x2="1535.8000000000002" y2="1081.0" stroke="black"/><line x1="10" y1="1103.0" x2="1535.8000000000002" y2="1103.0" stroke="black"/><line x1="10" y1="1125.0" x2="1535.8000000000002" y2="1125.0" stroke="black"/><line x1="10" y1="1147.0" x2="1535.8000000000002" y2="1147.0" stroke="black"/><line x1="10" y1="1169.0" x2="1535.8000000000002" y2="1169.0" stroke="black"/><line x1="10" y1="1191.0" x2="1535.8000000000002" y2="1191.0" stroke="black"/><line x1="10" y1="1213.0" x2="1535.8000000000002" y2="1213.0" stroke="black"/><line x1="10" y1="1235.0" x2="1535.8000000000002" y2="1235.0" stroke="black"/><line x1="10" y1="1257.0" x2="1535.8000000000002" y2="1257.0" stroke="black"/><line x1="10" y1="1279.0" x2="1535.8000000000002" y2="1279.0" stroke="black"/><line x1="10" y1="1301.0" x2="1535.8000000000002" y2="1301.0" stroke="black"/><line x1="10" y1="1323.0" x2="1535.8000000000002" y2="1323.0" stroke="black"/><line x1="10" y1="1363.0" x2="1535.8000000000002" y2="1363.0" stroke="black"/><line x1="10" y1="1013.0" x2="10" y2="1363.0" stroke="black"/><text x="10" y="1396.0" font-family="Arial" font-size="14">ECSCluster (ECS Cluster)</text><text x="15" y="1398.0" font-family="Arial" font-size="12"><tspan x="15" dy="24">key</tspan><tspan x="15" dy="22">ClusterName</tspan><tspan x="15" dy="22">Service 1</tspan></text><line x1="92.8" y1="1403.0" x2="92.8" y2="1471.0" stroke="black"/><text x="97.8" y="1398.0" font-family="Arial" font-size="12"><tspan x="97.8" dy="24">value</tspan><tspan x="97.8" dy="22">aws-power-toggle</tspan><tspan x="97.8" dy="22">ECSService (EC2)</tspan></text><line x1="204.39999999999998" y1="1403.0" x2="204.39999999999998" y2="1471.0" stroke="black"/><line x1="10" y1="1403.0" x2="204.39999999999998" y2="1403.0" stroke="black"/><line x1="10" y1="1427.0" x2="204.39999999999998" y2="1427.0" stroke="black"/><line x1="10" y1="1449.0" x2="204.39999999999998" y2="1449.0" stroke="black"/><line x1="10" y1="1471.0" x2="204.39999999999998" y2="1471.0" stroke="black"/><line x1="10" y1="1403.0" x2="10" y2="1471.0" stroke="black"/><text x="10" y="1504.0" font-family="Arial" font-size="14">aws-power-toggle-alb (ElasticLoadBalancingV2-LoadBalancer)</text><text x="15" y="1506.0" font-family="Arial" font-size="12"><tspan x="15" dy="24">key</tspan><tspan x="15" dy="22">LoadBalancerAttributes</tspan><tspan x="15" dy="22">Name</tspan><tspan x="15" dy="22">Scheme</tspan><tspan x="15" dy="22">Subnets</tspan><tspan x="15" dy="22">SecurityGroups</tspan><tspan x="15" dy="22">Tag - Name</tspan></text><line x1="151.2" y1="1511.0" x2="151.2" y2="1667.0" stroke="black"/><text x="156.2" y="1506.0" font-family="Arial" font-size="12"><tspan x="156.2" dy="24">value</tspan><tspan x="156.2" dy="22">{'Key': 'idle_timeout.timeout_seconds', 'Value': '60'}, </tspan><tspan x="156.2" dy="22">aws-power-toggle-alb</tspan><tspan x="156.2" dy="22">internal</tspan><tspan x="156.2" dy="22">.</tspan><tspan x="156.2" dy="22">LoadBalancerSecurityGroup, </tspan><tspan x="156.2" dy="22">aws-power-toggle</tspan></text><line x1="445.8" y1="1511.0" x2="445.8" y2="1667.0" stroke="black"/><line x1="10" y1="1511.0" x2="445.8" y2="1511.0" stroke="black"/><line x1="10" y1="1535.0" x2="445.8" y2="1535.0" stroke="black"/><line x1="10" y1="1557.0" x2="445.8" y2="1557.0" stroke="black"/><line x1="10" y1="1579.0" x2="445.8" y2="1579.0" stroke="black"/><line x1="10" y1="1601.0" x2="445.8" y2="1601.0" stroke="black"/><line x1="10" y1="1623.0" x2="445.8" y2="1623.0" stroke="black"/><line x1="10" y1="1645.0" x2="445.8" y2="1645.0" stroke="black"/><line x1="10" y1="1667.0" x2="445.8" y2="1667.0" stroke="black"/><line x1="10" y1="1511.0" x2="10" y2="1667.0" stroke="black"/><text x="10" y="1700.0" font-family="Arial" font-size="14">ListenerHTTPS (ElasticLoadBalancingV2-Listener)</text><text x="15" y="1702.0" font-family="Arial" font-size="12"><tspan x="15" dy="24">key</tspan><tspan x="15" dy="22">DefaultActions</tspan><tspan x="15" dy="22">LoadBalancerArn</tspan><tspan x="15" dy="22">Port</tspan><tspan x="15" dy="22">Protocol</tspan><tspan x="15" dy="22">Certificates</tspan></text><line x1="119.30000000000001" y1="1707.0" x2="119.30000000000001" y2="1841.0" stroke="black"/><text x="124.30000000000001" y="1702.0" font-family="Arial" font-size="12"><tspan x="124.30000000000001" dy="24">value</tspan><tspan x="124.30000000000001" dy="22">{'TargetGroupArn': {'Ref': 'ECSTargetGroup'}, 'Type': 'forward'}, </tspan><tspan x="124.30000000000001" dy="22">LoadBalancer</tspan><tspan x="124.30000000000001" dy="22">443</tspan><tspan x="124.30000000000001" dy="22">HTTPS</tspan><tspan x="124.30000000000001" dy="22">{'CertificateArn': {'Ref': 'CertificateArn'}}, </tspan></text><line x1="481.7" y1="1707.0" x2="481.7" y2="1841.0" stroke="black"/><line x1="10" y1="1707.0" x2="481.7" y2="1707.0" stroke="black"/><line x1="10" y1="1731.0" x2="481.7" y2="1731.0" stroke="black"/><line x1="10" y1="1753.0" x2="481.7" y2="1753.0" stroke="black"/><line x1="10" y1="1775.0" x2="481.7" y2="1775.0" stroke="black"/><line x1="10" y1="1797.0" x2="481.7" y2="1797.0" stroke="black"/><line x1="10" y1="1819.0" x2="481.7" y2="1819.0" stroke="black"/><line x1="10" y1="1841.0" x2="481.7" y2="1841.0" stroke="black"/><line x1="10" y1="1707.0" x2="10" y2="1841.0" stroke="black"/><text x="10" y="1874.0" font-family="Arial" font-size="14">ECSTargetGroup (ElasticLoadBalancingV2-TargetGroup)</text><text x="15" y="1876.0" font-family="Arial" font-size="12"><tspan x="15" dy="24">key</tspan><tspan x="15" dy="22">HealthCheckIntervalSeconds</tspan><tspan x="15" dy="22">HealthCheckPath</tspan><tspan x="15" dy="22">HealthCheckTimeoutSeconds</tspan><tspan x="15" dy="22">UnhealthyThresholdCount</tspan><tspan x="15" dy="22">HealthyThresholdCount</tspan><tspan x="15" dy="22">Name</tspan><tspan x="15" dy="22">Port</tspan><tspan x="15" dy="22">Protocol</tspan><tspan x="15" dy="22">TargetGroupAttributes</tspan><tspan x="15" dy="22">TargetType</tspan><tspan x="15" dy="22">VpcId</tspan><tspan x="15" dy="22">Tag - Name</tspan></text><line x1="179.10000000000002" y1="1881.0" x2="179.10000000000002" y2="2169.0" stroke="black"/><text x="184.10000000000002" y="1876.0" font-family="Arial" font-size="12"><tspan x="184.10000000000002" dy="24">value</tspan><tspan x="184.10000000000002" dy="22">10</tspan><tspan x="184.10000000000002" dy="22">/</tspan><tspan x="184.10000000000002" dy="22">5</tspan><tspan x="184.10000000000002" dy="22">2</tspan><tspan x="184.10000000000002" dy="22">2</tspan><tspan x="184.10000000000002" dy="22">aws-power-toggle-alb-tg</tspan><tspan x="184.10000000000002" dy="22">8080</tspan><tspan x="184.10000000000002" dy="22">HTTP</tspan><tspan x="184.10000000000002" dy="22">{'Key': 'deregistration_delay.timeout_seconds', 'Value': '60'}, </tspan><tspan x="184.10000000000002" dy="22">ip</tspan><tspan x="184.10000000000002" dy="22">.</tspan><tspan x="184.10000000000002" dy="22">aws-power-toggle</tspan></text><line x1="518.2" y1="1881.0" x2="518.2" y2="2169.0" stroke="black"/><line x1="10" y1="1881.0" x2="518.2" y2="1881.0" stroke="black"/><line x1="10" y1="1905.0" x2="518.2" y2="1905.0" stroke="black"/><line x1="10" y1="1927.0" x2="518.2" y2="1927.0" stroke="black"/><line x1="10" y1="1949.0" x2="518.2" y2="1949.0" stroke="black"/><line x1="10" y1="1971.0" x2="518.2" y2="1971.0" stroke="black"/><line x1="10" y1="1993.0" x2="518.2" y2="1993.0" stroke="black"/><line x1="10" y1="2015.0" x2="518.2" y2="2015.0" stroke="black"/><line x1="10" y1="2037.0" x2="518.2" y2="2037.0" stroke="black"/><line x1="10" y1="2059.0" x2="518.2" y2="2059.0" stroke="black"/><line x1="10" y1="2081.0" x2="518.2" y2="2081.0" stroke="black"/><line x1="10" y1="2103.0" x2="518.2" y2="2103.0" stroke="black"/><line x1="10" y1="2125.0" x2="518.2" y2="2125.0" stroke="black"/><line x1="10" y1="2147.0" x2="518.2" y2="2147.0" stroke="black"/><line x1="10" y1="2169.0" x2="518.2" y2="2169.0" stroke="black"/><line x1="10" y1="1881.0" x2="10" y2="2169.0" stroke="black"/><text x="10" y="2202.0" font-family="Arial" font-size="14">IAM-Role</text><line x1="10" y1="2209.0" x2="10" y2="2209.0" stroke="black"/><line x1="10" y1="2219.0" x2="10" y2="2219.0" stroke="black"/><line x1="10" y1="2209.0" x2="10" y2="2219.0" stroke="black"/><text x="10" y="2252.0" font-family="Arial" font-size="14">ContainerSecurityGroup (EC2-SecurityGroup)</text><text x="15" y="2254.0" font-family="Arial" font-size="12"><tspan x="15" dy="24">key</tspan><tspan x="15" dy="22">groupDescription</tspan><tspan x="15" dy="22">Ingress</tspan></text><line x1="115.1" y1="2259.0" x2="115.1" y2="2327.0" stroke="black"/><text x="120.1" y="2254.0" font-family="Arial" font-size="12"><tspan x="120.1" dy="24">Description</tspan><tspan x="120.1" dy="22">aws-power-toggle-ecs-sg</tspan><tspan x="120.1" dy="22">.</tspan></text><line x1="261.6" y1="2259.0" x2="261.6" y2="2327.0" stroke="black"/><text x="266.6" y="2254.0" font-family="Arial" font-size="12"><tspan x="266.6" dy="24">IpProtocol</tspan><tspan x="266.6" dy="22">.</tspan><tspan x="266.6" dy="22">tcp</tspan></text><line x1="330.9" y1="2259.0" x2="330.9" y2="2327.0" stroke="black"/><text x="335.9" y="2254.0" font-family="Arial" font-size="12"><tspan x="335.9" dy="24">FromPort</tspan><tspan x="335.9" dy="22">.</tspan><tspan x="335.9" dy="22">8080</tspan></text><line x1="395.5" y1="2259.0" x2="395.5" y2="2327.0" stroke="black"/><text x="400.5" y="2254.0" font-family="Arial" font-size="12"><tspan x="400.5" dy="24">ToPort</tspan><tspan x="400.5" dy="22">.</tspan><tspan x="400.5" dy="22">8080</tspan></text><line x1="446.6" y1="2259.0" x2="446.6" y2="2327.0" stroke="black"/><text x="451.6" y="2254.0" font-family="Arial" font-size="12"><tspan x="451.6" dy="24">Obj</tspan><tspan x="451.6" dy="22">.</tspan><tspan x="451.6" dy="22">LoadBalancerSecurityGroup</tspan></text><line x1="612.2" y1="2259.0" x2="612.2" y2="2327.0" stroke="black"/><line x1="10" y1="2259.0" x2="612.2" y2="2259.0" stroke="black"/><line x1="10" y1="2283.0" x2="612.2" y2="2283.0" stroke="black"/><line x1="10" y1="2305.0" x2="612.2" y2="2305.0" stroke="black"/><line x1="10" y1="2327.0" x2="612.2" y2="2327.0" stroke="black"/><line x1="10" y1="2259.0" x2="10" y2="2327.0" stroke="black"/></svg>